# xmcd CD database file
#
# Track frame offsets:
#	150
#	12376
#	21665
#	37066
#	48958
#	62078
#	76523
#	90606
#	99437
#	112096
#	119514
#	133468
#	150509
#	163336
#
# Disc length: 2380 seconds
#
# Revision: 0
# Processed by: cddbd v1.5.1PL0 Copyright (c) Steve Scherf et al.
# Submitted via: CDex 1.51
#
DISCID=bd094a0e
DTITLE=Elis Regina - ElisRevisitada
DYEAR=2005
DGENRE=Jazz
TTITLE0=Zazueira
TTITLE1=Corrida de Jangada
TTITLE2=Aquarela do Brasil/Nêga do Cabelo Duro
TTITLE3=Madalena
TTITLE4=Exaltação a Tiradentes
TTITLE5=Bala com Bala
TTITLE6=Falei e Disse
TTITLE7=Meio de Campo
TTITLE8=É Com Esse Que Eu Vou
TTITLE9=Brigas Nunca Mais
TTITLE10=Águas de Março
TTITLE11=Amor Até o Fim
TTITLE12=Aquele Abraço
TTITLE13=Vou Deitar e Rolar
EXTD=YEAR: 2005
EXTT0=
EXTT1=
EXTT2=
EXTT3=
EXTT4=
EXTT5=
EXTT6=
EXTT7=
EXTT8=
EXTT9=
EXTT10=
EXTT11=
EXTT12=
EXTT13=
PLAYORDER=
